#!OML:ASF I:\Random Stuff\random\construction\7_22_03\Session 2\subj1.ASF
:FULLY-SPECIFIED
:DEGREES
351
root -2.65809 17.737 3.44944 3.17537 30.1383 -4.22617
lowerback 4.0984 -2.79155 -3.44523
upperback 1.02352 -3.86082 -0.503771
thorax -1.04876 -1.9199 1.59258
lowerneck -22.151 3.8764 1.94146
upperneck 44.4316 5.32697 1.47092
head 22.037 2.62973 1.78988
rclavicle 3.83654e-014 7.95139e-016
rhumerus -33.1567 -17.1168 -23.4211
rradius 120.064
rwrist -63.4147
rhand -13.6761 6.78431
rfingers 7.12502
rthumb 12.4414 -22.8254
lclavicle 3.83654e-014 7.95139e-016
lhumerus 7.66861 -23.8215 64.1616
lradius 97.3689
lwrist 29.5368
lhand -17.9341 66.968
lfingers 7.12502
lthumb -171.666 83.2164
rfemur -14.7604 10.1417 18.7282
rtibia 25.3186
rfoot -14.3355 0.035629
rtoes -15.8241
lfemur -14.5099 -1.99905 -16.664
ltibia 24.0627
lfoot -18.1536 24.5105
ltoes -4.75005
352
root -2.72546 17.7278 3.45992 3.33521 30.3297 -4.15415
lowerback 4.03811 -3.01767 -3.22339
upperback 1.12752 -4.14732 -0.484767
thorax -0.907752 -2.0667 1.49336
lowerneck -21.6328 3.91572 1.58255
upperneck 44.037 5.38808 1.7702
head 21.5338 2.64684 1.98171
rclavicle 5.22804e-014 -2.06736e-014
rhumerus -33.9202 -16.837 -23.2879
rradius 120.179
rwrist -62.2793
rhand -13.6894 6.60571
rfingers 7.12502
rthumb 12.4286 -23.0048
lclavicle 5.22804e-014 -2.06736e-014
lhumerus 7.33802 -23.5752 64.0209
lradius 97.8559
lwrist 29.9802
lhand -17.7576 66.9111
lfingers 7.12502
lthumb -171.496 83.2802
rfemur -14.2017 10.2056 18.7466
rtibia 25.1686
rfoot -14.1629 0.537754
rtoes -17.1855
lfemur -14.893 -1.74014 -16.5118
ltibia 24.2345
lfoot -17.637 24.3145
ltoes -7.05453
353
root -2.7956 17.7181 3.47498 3.50793 30.5511 -4.08865
lowerback 4.02007 -3.24411 -3.03865
upperback 1.19186 -4.4383 -0.402176
thorax -0.824961 -2.21423 1.48316
lowerneck -21.7972 3.83046 1.60535
upperneck 44.3089 5.29592 1.66013
head 21.7993 2.58933 1.91841
rclavicle -2.04748e-014 -1.11319e-014
rhumerus -34.5834 -16.3699 -23.292
rradius 120.225
rwrist -60.396
rhand -13.7635 6.40368
rfingers 7.12502
rthumb 12.3571 -23.2111
lclavicle -2.04748e-014 -1.11319e-014
lhumerus 6.91161 -23.2538 64.0364
lradius 98.3082
lwrist 30.2108
lhand -17.3312 66.6815
lfingers 7.12502
lthumb -171.084 83.5268
rfemur -13.5157 10.2917 18.7737
rtibia 24.5665
rfoot -13.7964 1.06212
rtoes -18.4197
lfemur -15.286 -1.6411 -16.3304
ltibia 24.4164
lfoot -16.9062 24.2635
ltoes -10.8918
354
root -2.86729 17.7157 3.49345 3.70203 30.7896 -4.07275
lowerback 4.02146 -3.44734 -2.80893
upperback 1.18902 -4.69882 -0.268579
thorax -0.823711 -2.34477 1.50274
lowerneck -21.6167 3.80317 1.43071
upperneck 44.4114 5.34177 1.65604
head 21.8093 2.57446 1.95556
rclavicle 8.05078e-014 6.36111e-015
rhumerus -35.1953 -15.7445 -23.4171
rradius 120.168
rwrist -58.5857
rhand -13.4962 6.06176
rfingers 7.12502
rthumb 12.6149 -23.5373
lclavicle 8.05078e-014 6.36111e-015
lhumerus 6.31562 -22.9202 64.2578
lradius 98.7284
lwrist 30.3663
lhand -16.93 65.9905
lfingers 7.12502
lthumb -170.697 84.2348
rfemur -12.8198 10.3918 18.8285
rtibia 23.5359
rfoot -13.5906 1.75941
rtoes -17.7432
lfemur -15.6846 -1.89252 -16.0276
ltibia 24.5662
lfoot -16.5149 24.2203
ltoes -13.3863
355
root -2.93909 17.7123 3.51616 3.95379 31.0273 -3.9032
lowerback 3.98787 -3.60206 -2.63898
upperback 1.20145 -4.89608 -0.181767
thorax -0.789892 -2.44415 1.50205
lowerneck -21.6835 3.65578 1.41081
upperneck 44.6573 5.17835 1.53452
head 22.028 2.48596 1.87107
rclavicle 1.90833e-014 -1.11319e-014
rhumerus -35.791 -15.0949 -23.6395
rradius 120.067
rwrist -57.3324
rhand -12.9287 5.14577
rfingers 7.12502
rthumb 13.162 -24.4188
lclavicle 1.90833e-014 -1.11319e-014
lhumerus 5.72527 -22.6474 64.531
lradius 99.1466
lwrist 30.5872
lhand -16.7392 65.1676
lfingers 7.12502
lthumb -170.513 85.066
rfemur -12.1374 10.4176 18.7429
rtibia 22.127
rfoot -13.7685 2.36604
rtoes -16.9059
lfemur -16.0443 -2.19924 -15.8675
ltibia 24.7076
lfoot -16.3677 24.2025
ltoes -14.157
356
root -3.01127 17.7017 3.54119 4.22547 31.2207 -3.57169
lowerback 4.00921 -3.71348 -2.5804
upperback 1.24804 -5.04118 -0.132598
thorax -0.748087 -2.51766 1.52475
lowerneck -21.6098 3.56376 1.23761
upperneck 44.7456 5.07722 1.6055
head 22.0602 2.42749 1.91677
rclavicle 6.75868e-015 -7.95139e-015
rhumerus -36.3272 -14.4107 -24.0527
rradius 119.993
rwrist -56.1577
rhand -12.1281 3.80274
rfingers 7.12502
rthumb 13.9336 -25.7104
lclavicle 6.75868e-015 -7.95139e-015
lhumerus 5.14348 -22.3985 64.7832
lradius 99.637
lwrist 30.9363
lhand -16.5805 64.6832
lfingers 7.12502
lthumb -170.36 85.5574
rfemur -11.4625 10.3855 18.5507
rtibia 20.4702
rfoot -14.1561 2.59412
rtoes -17.9747
lfemur -16.32 -2.54728 -15.8823
ltibia 24.8427
lfoot -16.2705 24.3599
ltoes -14.2768
357
root -3.09029 17.6918 3.56476 4.52821 31.3785 -3.28334
lowerback 4.05804 -3.77124 -2.48093
upperback 1.27953 -5.11407 -0.0558697
thorax -0.741416 -2.5545 1.55306
lowerneck -21.5568 3.51008 1.00411
upperneck 44.8317 5.00972 1.79939
head 22.0868 2.38864 2.04798
rclavicle 9.58142e-014 -3.89618e-014
rhumerus -36.8399 -13.6406 -24.5997
rradius 119.867
rwrist -54.5725
rhand -11.0295 2.47126
rfingers 7.12502
rthumb 14.992 -26.966
lclavicle 9.58142e-014 -3.89618e-014
lhumerus 4.512 -22.1622 65.0464
lradius 100.09
lwrist 31.2518
lhand -16.3037 64.3192
lfingers 7.12502
lthumb -170.093 85.9339
rfemur -10.8737 10.3617 18.4757
rtibia 18.7843
rfoot -14.4827 2.44094
rtoes -19.7479
lfemur -16.6456 -2.90246 -15.8307
ltibia 24.9269
lfoot -16.39 24.4863
ltoes -12.663
358
root -3.17832 17.6864 3.5879 4.83976 31.5108 -3.073
lowerback 4.12039 -3.82221 -2.39338
upperback 1.29463 -5.17816 0.105146
thorax -0.750625 -2.58688 1.67528
lowerneck -21.4137 3.48955 0.753781
upperneck 44.781 5.04015 1.90108
head 21.9811 2.37456 2.14514
rclavicle 4.70126e-014 -9.54166e-015
rhumerus -37.0659 -12.6142 -25.4769
rradius 119.591
rwrist -52.2469
rhand -10.1037 1.35214
rfingers 7.12502
rthumb 15.8838 -28.0164
lclavicle 4.70126e-014 -9.54166e-015
lhumerus 3.7468 -21.7905 65.3574
lradius 100.459
lwrist 31.255
lhand -16.0001 63.8293
lfingers 7.12502
lthumb -169.8 86.438
rfemur -10.3276 10.4465 18.5685
rtibia 17.2208
rfoot -14.6649 2.03662
rtoes -20.1929
lfemur -17.0212 -3.23843 -15.6699
ltibia 24.9623
lfoot -16.7604 24.5528
ltoes -9.40387
359
root -3.27449 17.6855 3.61256 5.0964 31.5819 -3.00607
lowerback 4.20731 -3.84721 -2.24392
upperback 1.31017 -5.20502 0.308241
thorax -0.776241 -2.60048 1.80684
lowerneck -21.8978 3.35633 0.761192
upperneck 44.8257 4.86711 1.82417
head 22.6246 2.27702 2.12639
rclavicle -1.22253e-013 7.95139e-015
rhumerus -37.0477 -11.4618 -26.8062
rradius 119.205
rwrist -49.8434
rhand -9.13484 0.00218448
rfingers 7.12502
rthumb 16.8166 -29.2896
lclavicle -1.22253e-013 7.95139e-015
lhumerus 2.86751 -21.4601 65.6561
lradius 100.899
lwrist 30.6816
lhand -15.9574 63.2951
lfingers 7.12502
lthumb -169.759 86.9742
rfemur -9.87841 10.7707 18.872
rtibia 15.8662
rfoot -14.5685 1.32777
rtoes -20.723
lfemur -17.3944 -3.61736 -15.3167
ltibia 24.9698
lfoot -16.8951 24.7616
ltoes -7.73986
